<?xml version="1.0" standalone="no"?>
<!DOCTYPE svg PUBLIC "-//W3C//DTD SVG 20010904//EN"
 "http://www.w3.org/TR/2001/REC-SVG-20010904/DTD/svg10.dtd">
<svg version="1.0" xmlns="http://www.w3.org/2000/svg"
 width="700.000000pt" height="700.000000pt" viewBox="0 0 700.000000 700.000000"
 preserveAspectRatio="xMidYMid meet">
<metadata>
Created by potrace 1.11, written by Peter Selinger 2001-2013
</metadata>
<g transform="translate(0.000000,700.000000) scale(0.100000,-0.100000)"
fill="#000000" stroke="none">
<path d="M3377 6414 c-1 -1 -47 -4 -102 -8 -460 -29 -960 -198 -1355 -457
-103 -67 -227 -156 -250 -179 -3 -3 -36 -32 -75 -65 -236 -201 -446 -453 -608
-728 -58 -98 -129 -238 -162 -317 -14 -36 -32 -78 -40 -95 -41 -91 -130 -398
-151 -525 -4 -25 -8 -47 -9 -50 -1 -3 -5 -32 -9 -65 -5 -33 -10 -69 -12 -80
-16 -81 -22 -400 -11 -565 81 -1188 923 -2234 2073 -2574 118 -35 313 -79 409
-91 28 -4 61 -9 75 -11 138 -23 593 -22 705 1 11 2 39 7 63 9 77 10 215 37
312 63 687 180 1273 592 1677 1179 230 334 394 734 462 1124 35 199 44 308 44
515 0 216 -5 275 -39 495 -68 427 -256 870 -526 1238 -270 367 -638 677 -1043
879 -187 94 -450 190 -625 229 -19 4 -39 9 -45 10 -63 18 -281 51 -390 60 -75
6 -363 13 -368 8z m305 -616 c66 -31 140 -95 173 -153 46 -77 56 -123 58 -255
l2 -125 30 -9 c331 -105 534 -259 670 -509 81 -148 96 -232 56 -322 -43 -98
-128 -147 -255 -148 -147 -1 -213 41 -266 171 -46 111 -76 161 -131 214 -49
47 -115 87 -193 115 -161 58 -473 52 -656 -12 -215 -74 -342 -232 -341 -423 1
-248 195 -393 726 -542 184 -51 217 -61 300 -87 542 -174 841 -429 934 -798
59 -229 38 -471 -57 -660 -81 -163 -231 -304 -428 -403 -74 -37 -238 -95 -319
-112 -33 -7 -63 -16 -67 -19 -4 -3 -8 -55 -9 -116 -2 -126 -17 -187 -63 -260
-76 -118 -189 -176 -336 -172 -128 3 -226 55 -304 159 -50 67 -68 131 -73 268
-3 69 -6 126 -8 128 -2 2 -34 12 -72 22 -37 10 -101 30 -142 45 -302 108 -559
338 -650 580 -28 75 -29 130 -2 191 27 60 52 88 111 122 41 25 54 27 150 27
96 0 109 -2 151 -27 60 -35 90 -72 130 -156 82 -173 207 -269 421 -321 107
-26 164 -32 290 -32 161 -1 316 20 383 50 11 5 43 19 70 32 166 75 259 215
258 389 -1 197 -94 331 -313 452 -88 49 -209 90 -487 168 -155 44 -326 96
-380 116 -365 136 -610 324 -726 559 -65 132 -82 216 -81 400 1 133 12 204 44
280 4 11 14 36 21 55 7 19 39 74 71 121 93 140 235 260 409 346 91 45 284 113
319 113 29 0 34 17 36 136 3 158 34 243 121 324 90 85 160 111 283 107 66 -2
98 -9 142 -29z"/>
</g>
</svg>
